<svg xmlns="http://www.w3.org/2000/svg" xmlns:xlink="http://www.w3.org/1999/xlink" width="500" zoomAndPan="magnify" viewBox="0 0 375 374.999991" height="500" preserveAspectRatio="xMidYMid meet" version="1.2"><defs><clipPath id="1f1a58ba9c"><path d="M 62 72 L 316 72 L 316 325 L 62 325 Z M 62 72 "/></clipPath><clipPath id="944148baea"><path d="M 217.316406 374.996094 L 12.558594 226.816406 L 160.742188 22.0625 L 365.496094 170.242188 Z M 217.316406 374.996094 "/></clipPath><clipPath id="28e642b2c0"><path d="M 217.316406 374.996094 L 12.558594 226.816406 L 160.742188 22.0625 L 365.496094 170.242188 Z M 217.316406 374.996094 "/></clipPath><clipPath id="81f6abeede"><path d="M 63 64 L 317 64 L 317 318 L 63 318 Z M 63 64 "/></clipPath><clipPath id="d142719da5"><path d="M 218.242188 367.230469 L 13.488281 219.050781 L 161.667969 14.292969 L 366.425781 162.476562 Z M 218.242188 367.230469 "/></clipPath><clipPath id="3f50ec033e"><path d="M 218.242188 367.230469 L 13.488281 219.050781 L 161.667969 14.292969 L 366.425781 162.476562 Z M 218.242188 367.230469 "/></clipPath><clipPath id="73c443ec69"><path d="M 218.242188 367.230469 L 13.488281 219.050781 L 161.667969 14.292969 L 366.425781 162.476562 Z M 218.242188 367.230469 "/></clipPath><clipPath id="d93b4c6b2d"><path d="M 26.351562 101.136719 L 202 101.136719 L 202 271.386719 L 26.351562 271.386719 Z M 26.351562 101.136719 "/></clipPath></defs><g id="92719d1344"><g clip-rule="nonzero" clip-path="url(#1f1a58ba9c)"><g clip-rule="nonzero" clip-path="url(#944148baea)"><g clip-rule="nonzero" clip-path="url(#28e642b2c0)"><path style=" stroke:none;fill-rule:nonzero;fill:#ff3131;fill-opacity:1;" d="M 263.152344 96.175781 C 319.554688 136.996094 332.25 216.183594 291.378906 272.65625 C 250.511719 329.128906 171.375 341.75 114.972656 300.933594 C 58.570312 260.113281 45.875 180.925781 86.695312 124.523438 C 127.496094 68 206.679688 55.308594 263.152344 96.175781 Z M 116.226562 299.199219 C 171.726562 339.367188 249.480469 326.902344 289.648438 271.402344 C 329.816406 215.898438 317.332031 138.027344 261.898438 97.910156 C 206.46875 57.792969 128.523438 70.222656 88.359375 125.726562 C 48.191406 181.230469 60.722656 259.03125 116.226562 299.199219 Z M 116.226562 299.199219 "/></g></g></g><g clip-rule="nonzero" clip-path="url(#81f6abeede)"><g clip-rule="nonzero" clip-path="url(#d142719da5)"><g clip-rule="nonzero" clip-path="url(#3f50ec033e)"><g clip-rule="nonzero" clip-path="url(#73c443ec69)"><path style=" stroke:none;fill-rule:nonzero;fill:#ffffff;fill-opacity:1;" d="M 264.082031 88.410156 C 320.484375 129.230469 333.179688 208.414062 292.308594 264.886719 C 251.441406 321.359375 172.304688 333.984375 115.898438 293.164062 C 59.496094 252.347656 46.804688 173.160156 87.621094 116.757812 C 128.421875 60.234375 207.609375 47.539062 264.082031 88.410156 Z M 117.152344 291.433594 C 172.65625 331.601562 250.410156 319.136719 290.578125 263.632812 C 330.742188 208.132812 318.261719 130.257812 262.828125 90.140625 C 207.394531 50.023438 129.453125 62.457031 89.285156 117.960938 C 49.117188 173.460938 61.652344 251.265625 117.152344 291.433594 Z M 117.152344 291.433594 "/></g></g></g></g><g clip-rule="nonzero" clip-path="url(#d93b4c6b2d)"><path style=" stroke:none;fill-rule:nonzero;fill:#ffffff;fill-opacity:1;" d="M 184.246094 160.105469 C 183.363281 160.164062 182.535156 160.066406 181.710938 160.289062 C 181.234375 160.417969 180.710938 160.3125 180.226562 160.191406 C 179.605469 160.039062 178.96875 159.878906 178.34375 159.910156 C 177.050781 159.972656 175.753906 159.703125 174.488281 159.871094 C 172.238281 160.171875 169.988281 160.527344 167.785156 161.113281 C 165.722656 161.660156 163.625 162.0625 161.535156 162.488281 C 159.023438 163 156.488281 163.207031 153.929688 163.152344 C 152.675781 163.125 151.425781 163.167969 150.210938 163.484375 C 149.300781 163.71875 148.40625 164.023438 147.515625 164.332031 C 145.070312 165.171875 142.550781 165.722656 140.007812 166.152344 C 138.175781 166.460938 136.324219 166.695312 134.46875 166.761719 C 132.402344 166.839844 130.402344 167.253906 128.410156 167.761719 C 125.074219 168.609375 121.695312 169.234375 118.28125 169.667969 C 117.347656 169.785156 116.425781 169.988281 115.476562 170.015625 C 114.828125 170.039062 114.582031 170.355469 114.796875 170.945312 C 115.207031 172.070312 115.089844 173.195312 114.855469 174.308594 C 114.621094 175.421875 114.445312 176.539062 114.347656 177.671875 C 114.226562 179.148438 113.667969 180.527344 113.347656 181.964844 C 112.886719 184.050781 112.535156 186.160156 112.296875 188.277344 C 112.09375 190.0625 111.9375 191.855469 111.820312 193.652344 C 111.691406 195.636719 111.46875 197.617188 111.09375 199.585938 C 110.738281 201.464844 110.292969 203.320312 109.902344 205.1875 C 109.734375 205.996094 109.351562 206.753906 109.238281 207.582031 C 109.136719 208.324219 108.964844 209.0625 108.921875 209.804688 C 108.894531 210.378906 108.972656 210.972656 109.085938 211.539062 C 109.28125 212.527344 109.273438 213.53125 109.277344 214.523438 C 109.285156 215.550781 109.347656 216.574219 109.355469 217.601562 C 109.355469 218.273438 109.5625 218.914062 109.636719 219.574219 C 109.851562 221.53125 110.089844 223.488281 110.246094 225.449219 C 110.355469 226.757812 110.003906 228.035156 109.792969 229.320312 C 109.5625 230.742188 109.082031 232.105469 108.90625 233.542969 C 108.789062 234.503906 108.601562 235.460938 108.207031 236.359375 C 108.082031 236.640625 108.015625 236.941406 108.003906 237.246094 C 107.972656 238.433594 107.589844 239.53125 107.199219 240.628906 C 106.8125 241.726562 106.574219 242.871094 106.046875 243.925781 C 105.835938 244.339844 105.804688 244.835938 105.796875 245.308594 C 105.785156 246.28125 105.792969 247.25 105.769531 248.222656 C 105.753906 248.777344 106.011719 249.175781 106.417969 249.503906 C 106.914062 249.902344 107.425781 250.285156 107.917969 250.695312 C 108.617188 251.273438 108.914062 252.007812 108.964844 252.9375 C 109.03125 254.183594 108.496094 255.132812 107.765625 256.027344 C 107.449219 256.410156 107.089844 256.761719 106.738281 257.113281 C 106.203125 257.652344 105.746094 258.242188 105.476562 258.953125 C 105.226562 259.605469 104.761719 260.140625 104.554688 260.816406 C 104.195312 262.003906 104.210938 263.222656 104.1875 264.441406 C 104.152344 266.328125 104.027344 268.207031 103.773438 270.074219 C 103.679688 270.761719 103.414062 270.972656 102.730469 271.019531 C 101.457031 271.105469 100.199219 271.382812 98.914062 271.253906 C 98.695312 271.230469 98.464844 271.246094 98.253906 271.195312 C 97.765625 271.074219 97.535156 270.816406 97.550781 270.3125 C 97.566406 269.683594 97.390625 269.113281 97.203125 268.53125 C 96.722656 267.035156 96.570312 265.503906 96.648438 263.9375 C 96.699219 262.945312 96.628906 261.941406 96.574219 260.957031 C 96.484375 259.367188 96.53125 257.800781 96.738281 256.226562 C 96.832031 255.511719 96.769531 254.773438 96.914062 254.074219 C 97.289062 252.269531 97.335938 250.425781 97.917969 248.628906 C 98.84375 245.777344 99.167969 242.78125 99.265625 239.78125 C 99.300781 238.671875 99.347656 237.566406 99.464844 236.460938 C 99.585938 235.277344 99.703125 234.085938 99.472656 232.894531 C 99.433594 232.683594 99.429688 232.449219 99.464844 232.234375 C 99.714844 230.664062 99.59375 229.074219 99.707031 227.5 C 99.808594 226.117188 99.753906 224.730469 99.816406 223.34375 C 99.90625 221.476562 99.617188 219.644531 99.035156 217.851562 C 98.625 216.59375 98.195312 215.328125 98.085938 213.984375 C 98.039062 213.402344 97.835938 212.847656 97.636719 212.300781 C 97.449219 211.773438 97.335938 211.230469 97.316406 210.671875 C 97.175781 206.875 96.730469 203.101562 96.398438 199.320312 C 96.230469 197.433594 96.28125 195.546875 96.203125 193.664062 C 96.140625 192.25 96.121094 190.832031 96.136719 189.417969 C 96.171875 186.621094 96.265625 183.820312 96.289062 181.023438 C 96.296875 179.851562 95.890625 178.792969 94.929688 178.054688 C 94.539062 177.753906 94.207031 177.46875 94.09375 176.972656 C 94.027344 176.691406 93.882812 176.457031 93.539062 176.445312 C 93.179688 176.4375 92.984375 176.65625 92.847656 176.949219 C 92.816406 177.027344 92.777344 177.101562 92.761719 177.183594 C 92.441406 178.824219 91.75 180.347656 91.257812 181.9375 C 90.5625 184.164062 89.558594 186.246094 88.152344 188.148438 C 87.175781 189.476562 86.125 190.695312 84.84375 191.726562 C 84.394531 192.089844 84 192.527344 83.550781 192.894531 C 83.15625 193.21875 83.082031 193.1875 82.949219 192.722656 C 82.871094 192.449219 82.820312 192.164062 82.46875 192.136719 C 82.15625 192.113281 81.945312 192.296875 81.777344 192.527344 C 81.539062 192.855469 81.464844 193.222656 81.480469 193.628906 C 81.496094 194.085938 81.335938 194.199219 80.886719 194.164062 C 80.523438 194.136719 80.238281 193.945312 80.050781 193.675781 C 79.597656 193.019531 78.847656 192.816406 78.226562 192.421875 C 77.902344 192.214844 77.34375 192.414062 77.042969 192.78125 C 76.941406 192.90625 76.878906 193.070312 76.78125 193.203125 C 76.457031 193.644531 76.003906 193.738281 75.550781 193.445312 C 75.363281 193.328125 75.199219 193.175781 75.039062 193.019531 C 74.726562 192.710938 74.378906 192.519531 73.921875 192.597656 C 73.867188 192.605469 73.808594 192.613281 73.757812 192.601562 C 73.367188 192.515625 72.742188 192.644531 72.6875 192.199219 C 72.628906 191.675781 72.515625 191 73.089844 190.59375 C 73.390625 190.378906 73.640625 190.144531 73.785156 189.792969 C 73.914062 189.480469 74.226562 189.488281 74.503906 189.5 C 75.03125 189.527344 75.492188 189.40625 75.867188 189.015625 C 76.023438 188.851562 76.242188 188.785156 76.453125 188.710938 C 76.609375 188.660156 76.820312 188.628906 76.855469 188.453125 C 76.953125 187.949219 77.398438 187.785156 77.71875 187.492188 C 78.734375 186.558594 79.574219 185.507812 79.894531 184.125 C 79.933594 183.964844 79.953125 183.785156 80.039062 183.652344 C 81.085938 181.960938 81.582031 180.035156 82.367188 178.234375 C 83.578125 175.453125 84.265625 172.503906 85.152344 169.617188 C 85.25 169.296875 85.292969 168.964844 85.375 168.640625 C 85.496094 168.152344 85.367188 167.746094 85.121094 167.304688 C 84.449219 166.09375 83.488281 165.15625 82.503906 164.21875 C 81.375 163.148438 80.257812 162.066406 79.210938 160.921875 C 78.132812 159.746094 77.3125 158.367188 76.808594 156.863281 C 75.992188 154.433594 74.902344 152.140625 73.707031 149.882812 C 72.867188 148.300781 72.613281 146.585938 72.910156 144.792969 C 73.054688 143.914062 73.226562 143.050781 73.519531 142.207031 C 73.609375 141.945312 73.675781 141.671875 73.71875 141.402344 C 73.832031 140.625 73.542969 140.148438 72.847656 139.785156 C 70.46875 138.535156 68.003906 137.4375 65.730469 136 C 63.71875 134.726562 61.777344 133.339844 59.800781 132.007812 C 58.464844 131.109375 57.140625 130.199219 55.785156 129.332031 C 54.851562 128.734375 53.835938 128.273438 52.867188 127.734375 C 51.949219 127.222656 51.023438 126.730469 50.113281 126.195312 C 48.273438 125.113281 46.40625 124.066406 44.695312 122.789062 C 42.71875 121.3125 40.753906 119.816406 39.03125 118.035156 C 38.429688 117.414062 37.734375 116.910156 37.042969 116.398438 C 36.570312 116.054688 36.027344 115.941406 35.46875 115.945312 C 34.574219 115.945312 33.707031 115.726562 32.816406 115.699219 C 32.546875 115.691406 32.25 115.625 32.023438 115.488281 C 31.191406 114.992188 30.242188 114.886719 29.339844 114.625 C 28.988281 114.523438 28.625 114.527344 28.265625 114.574219 C 28 114.609375 27.742188 114.582031 27.644531 114.289062 C 27.546875 113.988281 27.664062 113.734375 27.917969 113.566406 C 28.316406 113.304688 28.722656 113.078125 29.234375 113.148438 C 29.761719 113.222656 30.285156 113.148438 30.804688 113.039062 C 31.085938 112.980469 31.355469 112.910156 31.417969 112.574219 C 31.472656 112.269531 31.347656 112.023438 31.117188 111.839844 C 30.769531 111.5625 30.402344 111.296875 29.957031 111.210938 C 29.054688 111.042969 28.253906 110.566406 27.335938 110.417969 C 26.710938 110.3125 26.347656 109.277344 26.65625 108.71875 C 26.769531 108.515625 26.957031 108.492188 27.15625 108.5 C 27.445312 108.507812 27.695312 108.628906 27.941406 108.757812 C 28.257812 108.921875 28.550781 109 28.863281 108.734375 C 29.164062 108.476562 29.507812 108.558594 29.789062 108.753906 C 30.964844 109.5625 32.359375 109.761719 33.683594 110.136719 C 34.164062 110.273438 34.527344 110.535156 34.882812 110.847656 C 36.25 112.035156 37.722656 113.078125 39.285156 113.976562 C 40.847656 114.875 42.472656 115.65625 44.050781 116.523438 C 46.714844 117.984375 49.527344 119.070312 52.382812 120.082031 C 54.535156 120.84375 56.546875 121.917969 58.257812 123.46875 C 59.398438 124.503906 60.65625 125.320312 62.082031 125.933594 C 64.046875 126.773438 65.964844 127.726562 67.804688 128.8125 C 69.300781 129.699219 70.90625 130.121094 72.605469 130.324219 C 74.339844 130.535156 76.070312 130.757812 77.777344 131.167969 C 78.671875 131.382812 79.28125 131.0625 79.621094 130.195312 C 79.804688 129.730469 79.941406 129.246094 80.027344 128.757812 C 80.203125 127.800781 80.328125 126.839844 80.671875 125.921875 C 80.800781 125.578125 80.820312 125.210938 80.757812 124.851562 C 80.53125 123.539062 80.410156 122.210938 80.0625 120.921875 C 79.796875 119.949219 79.390625 119.121094 78.410156 118.652344 C 77.816406 118.367188 77.273438 117.960938 76.714844 117.601562 C 75.785156 117 75.597656 116.230469 76.273438 115.367188 C 76.703125 114.816406 77.070312 114.304688 76.910156 113.570312 C 76.882812 113.433594 76.925781 113.285156 77.027344 113.183594 C 77.316406 112.898438 77.34375 112.554688 77.289062 112.183594 C 77.234375 111.816406 77.40625 111.539062 77.648438 111.292969 C 78.105469 110.824219 78.1875 110.320312 77.941406 109.695312 C 77.652344 108.957031 77.828125 108.59375 78.519531 108.175781 C 79.117188 107.8125 79.738281 107.523438 80.425781 107.359375 C 81.160156 107.1875 81.710938 106.808594 81.988281 106.03125 C 82.761719 103.871094 84.398438 102.800781 86.609375 102.511719 C 86.835938 102.480469 87.042969 102.410156 87.226562 102.28125 C 88.839844 101.144531 90.457031 101.375 92.085938 102.25 C 92.328125 102.378906 92.570312 102.558594 92.828125 102.605469 C 94.171875 102.839844 94.96875 103.820312 95.824219 104.726562 C 96.144531 105.070312 96.429688 105.449219 96.589844 105.90625 C 96.617188 105.984375 96.644531 106.074219 96.699219 106.128906 C 97.554688 106.964844 97.875 108.121094 98.511719 109.089844 C 98.886719 109.667969 99.070312 110.289062 99.085938 110.96875 C 99.109375 111.800781 99.125 112.632812 99 113.460938 C 98.832031 114.558594 99 115.625 99.390625 116.648438 C 99.851562 117.847656 99.644531 118.855469 98.699219 119.742188 C 97.816406 120.570312 97.144531 121.539062 96.851562 122.75 C 96.640625 123.632812 96.8125 124.515625 96.78125 125.394531 C 96.769531 125.710938 97.042969 125.875 97.3125 125.972656 C 97.9375 126.199219 98.566406 126.417969 99.199219 126.621094 C 99.527344 126.726562 99.855469 126.667969 100.183594 126.582031 C 101.472656 126.253906 102.769531 125.9375 104.054688 125.597656 C 104.675781 125.433594 105.246094 125.136719 105.769531 124.761719 C 106.707031 124.085938 107.757812 123.832031 108.898438 123.796875 C 110.070312 123.757812 111.222656 123.878906 112.375 124.0625 C 114.550781 124.40625 116.742188 124.398438 118.9375 124.371094 C 119.871094 124.359375 120.734375 124.070312 121.601562 123.769531 C 121.929688 123.652344 122.152344 123.40625 122.390625 123.175781 C 123.289062 122.3125 124.070312 121.324219 125.125 120.625 C 125.476562 120.390625 125.832031 120.179688 126.238281 120.082031 C 126.726562 119.964844 127.070312 119.699219 127.371094 119.300781 C 127.792969 118.753906 128.246094 118.222656 128.75 117.746094 C 129.355469 117.175781 129.941406 116.589844 130.417969 115.902344 C 130.585938 115.65625 130.796875 115.476562 131.109375 115.554688 C 131.414062 115.625 131.433594 115.914062 131.476562 116.148438 C 131.5625 116.597656 131.714844 116.902344 132.257812 116.945312 C 132.621094 116.976562 132.703125 117.226562 132.511719 117.550781 C 132.371094 117.789062 132.207031 118.039062 131.992188 118.191406 C 131.378906 118.628906 130.882812 119.179688 130.371094 119.71875 C 130.3125 119.777344 130.222656 119.816406 130.1875 119.886719 C 130.019531 120.226562 129.628906 120.589844 129.773438 120.910156 C 129.929688 121.253906 130.417969 121.046875 130.765625 121.035156 C 131.128906 121.019531 131.488281 120.984375 131.847656 120.976562 C 132.039062 120.976562 132.265625 120.988281 132.3125 121.230469 C 132.359375 121.441406 132.226562 121.605469 132.058594 121.714844 C 131.921875 121.804688 131.769531 121.886719 131.609375 121.925781 C 130.007812 122.351562 128.460938 123.027344 126.75 122.960938 C 126.511719 122.949219 126.257812 123.039062 126.03125 123.132812 C 125.347656 123.40625 125.265625 123.6875 125.652344 124.335938 C 125.765625 124.527344 125.882812 124.71875 125.96875 124.921875 C 126.3125 125.703125 126.511719 125.84375 127.355469 125.765625 C 127.910156 125.714844 128.460938 125.667969 129.015625 125.679688 C 129.210938 125.683594 129.410156 125.679688 129.597656 125.722656 C 129.933594 125.800781 130.265625 125.96875 130.257812 126.359375 C 130.25 126.773438 129.851562 126.75 129.566406 126.800781 C 129.292969 126.851562 129.011719 126.855469 128.738281 126.867188 C 127.949219 126.90625 127.242188 127.117188 126.546875 127.542969 C 125.523438 128.167969 124.332031 128.269531 123.164062 128.105469 C 122.21875 127.972656 121.347656 128.039062 120.507812 128.5 C 119.820312 128.878906 119.042969 129.007812 118.316406 129.277344 C 115.914062 130.171875 113.4375 130.722656 110.898438 131.070312 C 109.863281 131.214844 108.867188 131.613281 107.851562 131.894531 C 107.582031 131.96875 107.3125 132.101562 107.046875 132.09375 C 105.136719 132.035156 103.476562 132.867188 101.847656 133.664062 C 100.589844 134.28125 99.289062 134.703125 97.972656 135.128906 C 97.222656 135.371094 96.878906 135.914062 97.246094 136.59375 C 98.132812 138.230469 97.898438 139.875 97.433594 141.527344 C 97.136719 142.585938 97.1875 143.671875 97.0625 144.742188 C 97.015625 145.128906 97.039062 145.539062 96.902344 145.890625 C 96.53125 146.855469 96.691406 147.796875 96.890625 148.75 C 96.996094 149.253906 97.195312 149.480469 97.675781 149.410156 C 98.390625 149.304688 99.019531 149.542969 99.695312 149.679688 C 100.804688 149.898438 101.925781 150.101562 103.039062 150.324219 C 104.285156 150.570312 105.492188 150.925781 106.640625 151.507812 C 107.578125 151.988281 108.523438 152.449219 109.441406 152.972656 C 109.582031 153.050781 109.761719 153.125 109.914062 153.109375 C 110.824219 153.011719 111.738281 153.238281 112.652344 153.074219 C 113.03125 153.003906 113.425781 152.996094 113.8125 153 C 116.699219 153.003906 119.582031 153.003906 122.441406 153.488281 C 124.769531 153.878906 127.121094 154.089844 129.46875 154.285156 C 132.316406 154.519531 135.164062 154.824219 138.023438 154.855469 C 140.046875 154.875 142.070312 154.941406 144.089844 154.675781 C 145.582031 154.480469 147.015625 154.027344 148.441406 153.578125 C 151.113281 152.734375 153.847656 152.347656 156.640625 152.394531 C 157.914062 152.417969 159.183594 152.605469 160.445312 152.796875 C 162.421875 153.101562 164.421875 153.144531 166.410156 153.324219 C 168.980469 153.550781 171.558594 153.65625 174.117188 153.988281 C 176.265625 154.269531 178.433594 154.332031 180.578125 153.855469 C 180.957031 153.773438 181.351562 153.726562 181.734375 153.742188 C 183.285156 153.804688 184.574219 153.140625 185.824219 152.34375 C 186.34375 152.011719 186.941406 151.859375 187.523438 151.675781 C 188.371094 151.40625 189.175781 151.0625 189.957031 150.617188 C 190.769531 150.152344 191.636719 149.796875 192.621094 149.777344 C 193.757812 149.75 194.882812 149.546875 196.023438 149.527344 C 197.160156 149.503906 198.296875 149.53125 199.433594 149.601562 C 200.523438 149.667969 201.257812 150.226562 201.523438 151.269531 C 201.765625 152.210938 201.839844 153.183594 201.972656 154.140625 C 202.089844 154.972656 201.648438 155.511719 201.023438 155.945312 C 200.039062 156.632812 198.976562 157.175781 197.820312 157.5 C 197.257812 157.65625 196.703125 157.824219 196.152344 158.019531 C 195.152344 158.371094 194.109375 158.550781 193.054688 158.609375 C 192.308594 158.648438 191.574219 158.792969 190.828125 158.847656 C 190.25 158.886719 189.675781 159.007812 189.132812 159.242188 C 187.554688 159.925781 185.925781 160.3125 184.246094 160.101562 Z M 184.246094 160.105469 "/></g><g style="fill:#ff3131;fill-opacity:1;"><g transform="translate(122.958805, 254.57017)"><path style="stroke:none" d="M 0.828125 0 C 0.765625 0 0.726562 -0.015625 0.71875 -0.046875 C 0.707031 -0.0859375 0.703125 -0.113281 0.703125 -0.125 L 0.703125 -0.796875 C 0.703125 -0.804688 0.707031 -0.828125 0.71875 -0.859375 C 0.726562 -0.898438 0.765625 -0.921875 0.828125 -0.921875 L 1.1875 -0.921875 C 1.40625 -0.921875 1.675781 -0.929688 2 -0.953125 C 2.320312 -0.984375 2.632812 -1.0625 2.9375 -1.1875 C 3.25 -1.3125 3.507812 -1.492188 3.71875 -1.734375 C 3.9375 -1.984375 4.046875 -2.320312 4.046875 -2.75 L 4.046875 -19.53125 C 4.046875 -19.851562 3.972656 -20.128906 3.828125 -20.359375 C 3.691406 -20.585938 3.515625 -20.769531 3.296875 -20.90625 C 3.078125 -21.050781 2.835938 -21.15625 2.578125 -21.21875 C 2.316406 -21.28125 2.070312 -21.3125 1.84375 -21.3125 L 0.828125 -21.3125 C 0.765625 -21.3125 0.726562 -21.328125 0.71875 -21.359375 C 0.707031 -21.398438 0.703125 -21.425781 0.703125 -21.4375 L 0.703125 -22.109375 C 0.703125 -22.117188 0.707031 -22.140625 0.71875 -22.171875 C 0.726562 -22.210938 0.765625 -22.234375 0.828125 -22.234375 L 1.1875 -22.234375 L 7.65625 -22.34375 C 8.257812 -22.351562 8.914062 -22.359375 9.625 -22.359375 C 10.332031 -22.367188 10.988281 -22.375 11.59375 -22.375 C 12.257812 -22.375 12.851562 -22.363281 13.375 -22.34375 C 13.90625 -22.332031 14.410156 -22.300781 14.890625 -22.25 C 15.367188 -22.207031 15.851562 -22.148438 16.34375 -22.078125 C 16.84375 -22.003906 17.394531 -21.90625 18 -21.78125 C 19.164062 -21.539062 20.25 -21.09375 21.25 -20.4375 C 22.257812 -19.789062 23.128906 -19.003906 23.859375 -18.078125 C 24.585938 -17.160156 25.15625 -16.140625 25.5625 -15.015625 C 25.976562 -13.890625 26.1875 -12.738281 26.1875 -11.5625 C 26.1875 -10.4375 26.03125 -9.363281 25.71875 -8.34375 C 25.40625 -7.332031 24.96875 -6.398438 24.40625 -5.546875 C 23.84375 -4.691406 23.175781 -3.921875 22.40625 -3.234375 C 21.632812 -2.546875 20.785156 -1.960938 19.859375 -1.484375 C 18.941406 -1.003906 17.960938 -0.632812 16.921875 -0.375 C 15.878906 -0.125 14.8125 0 13.71875 0 Z M 8.53125 -2.4375 C 8.53125 -2.132812 8.625 -1.898438 8.8125 -1.734375 C 9.007812 -1.566406 9.269531 -1.441406 9.59375 -1.359375 C 9.914062 -1.285156 10.289062 -1.242188 10.71875 -1.234375 C 11.144531 -1.222656 11.597656 -1.21875 12.078125 -1.21875 C 15.191406 -1.21875 17.523438 -2.078125 19.078125 -3.796875 C 20.640625 -5.515625 21.421875 -8.019531 21.421875 -11.3125 C 21.421875 -12.757812 21.242188 -14.085938 20.890625 -15.296875 C 20.535156 -16.503906 20 -17.539062 19.28125 -18.40625 C 18.5625 -19.28125 17.660156 -19.957031 16.578125 -20.4375 C 15.492188 -20.925781 14.210938 -21.171875 12.734375 -21.171875 L 8.921875 -21.171875 C 8.765625 -21.171875 8.660156 -21.132812 8.609375 -21.0625 C 8.554688 -21 8.53125 -20.894531 8.53125 -20.75 Z M 8.53125 -2.4375 "/></g></g><g style="fill:#ff3131;fill-opacity:1;"><g transform="translate(150.559092, 254.57017)"><path style="stroke:none" d="M 0.078125 -0.734375 C 0.078125 -0.816406 0.117188 -0.859375 0.203125 -0.859375 C 0.398438 -0.867188 0.632812 -0.894531 0.90625 -0.9375 C 1.175781 -0.988281 1.445312 -1.09375 1.71875 -1.25 C 2 -1.40625 2.269531 -1.628906 2.53125 -1.921875 C 2.789062 -2.222656 3.007812 -2.632812 3.1875 -3.15625 L 9.515625 -21.515625 C 9.515625 -21.503906 9.515625 -21.507812 9.515625 -21.53125 C 9.523438 -21.550781 9.53125 -21.570312 9.53125 -21.59375 C 9.53125 -21.664062 9.5 -21.753906 9.4375 -21.859375 C 9.382812 -21.972656 9.359375 -22.054688 9.359375 -22.109375 C 9.359375 -22.160156 9.378906 -22.1875 9.421875 -22.1875 L 14 -22.1875 C 14.019531 -22.175781 14.046875 -22.164062 14.078125 -22.15625 C 14.117188 -22.144531 14.148438 -22.113281 14.171875 -22.0625 L 20.828125 -3.390625 C 20.929688 -3.085938 21.03125 -2.832031 21.125 -2.625 C 21.21875 -2.414062 21.328125 -2.226562 21.453125 -2.0625 C 21.585938 -1.90625 21.753906 -1.757812 21.953125 -1.625 C 22.148438 -1.5 22.410156 -1.367188 22.734375 -1.234375 C 22.878906 -1.160156 23.078125 -1.078125 23.328125 -0.984375 C 23.578125 -0.898438 23.816406 -0.859375 24.046875 -0.859375 C 24.097656 -0.859375 24.128906 -0.84375 24.140625 -0.8125 C 24.160156 -0.78125 24.171875 -0.75 24.171875 -0.71875 L 24.171875 -0.125 C 24.171875 -0.101562 24.160156 -0.078125 24.140625 -0.046875 C 24.128906 -0.015625 24.097656 0 24.046875 0 L 13 0 C 12.945312 0 12.910156 -0.015625 12.890625 -0.046875 C 12.878906 -0.078125 12.875 -0.101562 12.875 -0.125 L 12.875 -0.734375 C 12.875 -0.753906 12.878906 -0.78125 12.890625 -0.8125 C 12.910156 -0.84375 12.945312 -0.859375 13 -0.859375 C 13.039062 -0.859375 13.082031 -0.859375 13.125 -0.859375 C 13.164062 -0.867188 13.195312 -0.875 13.21875 -0.875 C 13.332031 -0.882812 13.5 -0.894531 13.71875 -0.90625 C 13.9375 -0.914062 14.171875 -0.929688 14.421875 -0.953125 C 14.671875 -0.984375 14.921875 -1.03125 15.171875 -1.09375 C 15.429688 -1.15625 15.664062 -1.238281 15.875 -1.34375 C 16.09375 -1.457031 16.269531 -1.601562 16.40625 -1.78125 C 16.539062 -1.957031 16.609375 -2.175781 16.609375 -2.4375 C 16.609375 -2.5 16.597656 -2.570312 16.578125 -2.65625 L 14.515625 -8.34375 C 14.503906 -8.363281 14.484375 -8.410156 14.453125 -8.484375 C 14.429688 -8.554688 14.390625 -8.628906 14.328125 -8.703125 C 14.273438 -8.785156 14.203125 -8.859375 14.109375 -8.921875 C 14.023438 -8.984375 13.914062 -9.015625 13.78125 -9.015625 L 8.109375 -9.015625 C 7.972656 -9.015625 7.859375 -8.984375 7.765625 -8.921875 C 7.671875 -8.859375 7.585938 -8.789062 7.515625 -8.71875 C 7.453125 -8.644531 7.398438 -8.570312 7.359375 -8.5 C 7.328125 -8.425781 7.3125 -8.382812 7.3125 -8.375 C 6.976562 -7.382812 6.695312 -6.550781 6.46875 -5.875 C 6.238281 -5.195312 6.046875 -4.640625 5.890625 -4.203125 C 5.742188 -3.765625 5.628906 -3.421875 5.546875 -3.171875 C 5.460938 -2.929688 5.398438 -2.753906 5.359375 -2.640625 C 5.316406 -2.535156 5.289062 -2.46875 5.28125 -2.4375 C 5.28125 -2.414062 5.28125 -2.40625 5.28125 -2.40625 C 5.28125 -2.375 5.285156 -2.335938 5.296875 -2.296875 C 5.304688 -2.265625 5.316406 -2.234375 5.328125 -2.203125 C 5.421875 -1.941406 5.578125 -1.722656 5.796875 -1.546875 C 6.023438 -1.378906 6.285156 -1.242188 6.578125 -1.140625 C 6.867188 -1.035156 7.171875 -0.960938 7.484375 -0.921875 C 7.796875 -0.878906 8.070312 -0.859375 8.3125 -0.859375 L 8.71875 -0.859375 C 8.769531 -0.859375 8.800781 -0.84375 8.8125 -0.8125 C 8.832031 -0.78125 8.84375 -0.753906 8.84375 -0.734375 L 8.84375 -0.125 C 8.84375 -0.101562 8.832031 -0.078125 8.8125 -0.046875 C 8.800781 -0.015625 8.769531 0 8.71875 0 L 0.203125 0 C 0.117188 0 0.078125 -0.0390625 0.078125 -0.125 Z M 8.328125 -11.28125 C 8.304688 -11.226562 8.289062 -11.175781 8.28125 -11.125 C 8.269531 -11.070312 8.265625 -11.019531 8.265625 -10.96875 C 8.265625 -10.90625 8.28125 -10.851562 8.3125 -10.8125 C 8.34375 -10.78125 8.40625 -10.765625 8.5 -10.765625 L 13.21875 -10.765625 C 13.332031 -10.765625 13.40625 -10.785156 13.4375 -10.828125 C 13.476562 -10.878906 13.5 -10.9375 13.5 -11 C 13.5 -11.050781 13.492188 -11.097656 13.484375 -11.140625 C 13.472656 -11.179688 13.457031 -11.226562 13.4375 -11.28125 L 11.34375 -17.03125 C 11.289062 -17.175781 11.210938 -17.28125 11.109375 -17.34375 C 11.003906 -17.414062 10.910156 -17.453125 10.828125 -17.453125 C 10.742188 -17.453125 10.648438 -17.410156 10.546875 -17.328125 C 10.441406 -17.253906 10.363281 -17.148438 10.3125 -17.015625 Z M 8.328125 -11.28125 "/></g></g><g style="fill:#ff3131;fill-opacity:1;"><g transform="translate(174.807691, 254.57017)"><path style="stroke:none" d="M 1.0625 0 C 1.039062 0 1.015625 -0.0078125 0.984375 -0.03125 C 0.953125 -0.0625 0.9375 -0.09375 0.9375 -0.125 L 0.9375 -0.8125 C 0.9375 -0.894531 0.976562 -0.9375 1.0625 -0.9375 C 1.1875 -0.9375 1.320312 -0.9375 1.46875 -0.9375 C 1.613281 -0.9375 1.753906 -0.941406 1.890625 -0.953125 C 2.035156 -0.960938 2.164062 -0.972656 2.28125 -0.984375 C 2.394531 -0.992188 2.484375 -1.015625 2.546875 -1.046875 C 2.804688 -1.179688 3.019531 -1.351562 3.1875 -1.5625 C 3.363281 -1.769531 3.492188 -2.007812 3.578125 -2.28125 C 3.671875 -2.550781 3.734375 -2.847656 3.765625 -3.171875 C 3.796875 -3.503906 3.8125 -3.851562 3.8125 -4.21875 L 3.8125 -19.9375 C 3.8125 -20.21875 3.695312 -20.445312 3.46875 -20.625 C 3.238281 -20.800781 2.972656 -20.929688 2.671875 -21.015625 C 2.378906 -21.109375 2.078125 -21.171875 1.765625 -21.203125 C 1.460938 -21.234375 1.226562 -21.25 1.0625 -21.25 C 1.007812 -21.25 0.972656 -21.265625 0.953125 -21.296875 C 0.941406 -21.328125 0.9375 -21.351562 0.9375 -21.375 L 0.9375 -22.0625 C 0.9375 -22.082031 0.941406 -22.109375 0.953125 -22.140625 C 0.972656 -22.171875 1.007812 -22.1875 1.0625 -22.1875 L 8.203125 -22.1875 L 21.765625 -7.171875 C 21.816406 -7.117188 21.851562 -7.078125 21.875 -7.046875 C 21.894531 -7.023438 21.921875 -7.015625 21.953125 -7.015625 C 21.992188 -7.015625 22.019531 -7.03125 22.03125 -7.0625 C 22.039062 -7.09375 22.046875 -7.125 22.046875 -7.15625 L 22.046875 -16.515625 C 22.046875 -17.546875 22.007812 -18.375 21.9375 -19 C 21.863281 -19.625 21.726562 -20.101562 21.53125 -20.4375 C 21.332031 -20.769531 21.0625 -20.988281 20.71875 -21.09375 C 20.382812 -21.195312 19.957031 -21.25 19.4375 -21.25 L 18.640625 -21.25 C 18.585938 -21.25 18.550781 -21.265625 18.53125 -21.296875 C 18.519531 -21.328125 18.515625 -21.351562 18.515625 -21.375 L 18.515625 -22.0625 C 18.515625 -22.082031 18.519531 -22.109375 18.53125 -22.140625 C 18.550781 -22.171875 18.585938 -22.1875 18.640625 -22.1875 L 27.296875 -22.1875 C 27.359375 -22.1875 27.394531 -22.171875 27.40625 -22.140625 C 27.414062 -22.109375 27.421875 -22.082031 27.421875 -22.0625 L 27.421875 -21.375 C 27.421875 -21.351562 27.410156 -21.328125 27.390625 -21.296875 C 27.378906 -21.265625 27.347656 -21.25 27.296875 -21.25 C 27.085938 -21.25 26.816406 -21.207031 26.484375 -21.125 C 26.148438 -21.039062 25.828125 -20.921875 25.515625 -20.765625 C 25.203125 -20.609375 24.929688 -20.410156 24.703125 -20.171875 C 24.472656 -19.941406 24.359375 -19.679688 24.359375 -19.390625 L 24.359375 -0.765625 C 24.359375 -0.585938 24.316406 -0.4375 24.234375 -0.3125 C 24.148438 -0.195312 24.039062 -0.101562 23.90625 -0.03125 C 23.78125 0.0390625 23.640625 0.09375 23.484375 0.125 C 23.335938 0.164062 23.203125 0.1875 23.078125 0.1875 C 22.867188 0.1875 22.625 0.140625 22.34375 0.046875 C 22.0625 -0.0351562 21.785156 -0.226562 21.515625 -0.53125 L 6.65625 -17.015625 C 6.582031 -17.085938 6.53125 -17.128906 6.5 -17.140625 C 6.46875 -17.160156 6.425781 -17.171875 6.375 -17.171875 C 6.320312 -17.171875 6.296875 -17.117188 6.296875 -17.015625 L 6.296875 -2.953125 C 6.296875 -2.660156 6.363281 -2.40625 6.5 -2.1875 C 6.644531 -1.976562 6.828125 -1.796875 7.046875 -1.640625 C 7.265625 -1.492188 7.507812 -1.375 7.78125 -1.28125 C 8.050781 -1.195312 8.3125 -1.125 8.5625 -1.0625 C 8.820312 -1.007812 9.050781 -0.972656 9.25 -0.953125 C 9.457031 -0.941406 9.617188 -0.9375 9.734375 -0.9375 C 9.785156 -0.9375 9.820312 -0.914062 9.84375 -0.875 C 9.851562 -0.851562 9.859375 -0.832031 9.859375 -0.8125 L 9.859375 -0.125 C 9.859375 -0.101562 9.847656 -0.078125 9.828125 -0.046875 C 9.816406 -0.015625 9.785156 0 9.734375 0 Z M 1.0625 0 "/></g></g><g style="fill:#ff3131;fill-opacity:1;"><g transform="translate(202.769897, 254.57017)"><path style="stroke:none" d="M 1.65625 -10.953125 C 1.65625 -12.128906 1.800781 -13.238281 2.09375 -14.28125 C 2.382812 -15.320312 2.796875 -16.285156 3.328125 -17.171875 C 3.867188 -18.054688 4.515625 -18.847656 5.265625 -19.546875 C 6.023438 -20.253906 6.863281 -20.847656 7.78125 -21.328125 C 8.695312 -21.816406 9.679688 -22.191406 10.734375 -22.453125 C 11.785156 -22.722656 12.882812 -22.859375 14.03125 -22.859375 C 14.988281 -22.859375 15.914062 -22.769531 16.8125 -22.59375 C 17.707031 -22.414062 18.632812 -22.210938 19.59375 -21.984375 C 19.75 -21.941406 19.910156 -21.890625 20.078125 -21.828125 C 20.253906 -21.765625 20.421875 -21.703125 20.578125 -21.640625 C 20.734375 -21.585938 20.875 -21.539062 21 -21.5 C 21.125 -21.457031 21.21875 -21.4375 21.28125 -21.4375 C 21.300781 -21.4375 21.367188 -21.457031 21.484375 -21.5 C 21.609375 -21.539062 21.695312 -21.5625 21.75 -21.5625 L 22.46875 -21.5625 C 22.601562 -21.5625 22.671875 -21.472656 22.671875 -21.296875 L 22.671875 -16.171875 C 22.671875 -16.097656 22.644531 -16.050781 22.59375 -16.03125 C 22.539062 -16.007812 22.4375 -16 22.28125 -16 C 22.25 -16 22.164062 -16 22.03125 -16 C 21.90625 -16.007812 21.828125 -16.039062 21.796875 -16.09375 C 21.773438 -16.132812 21.734375 -16.203125 21.671875 -16.296875 C 21.617188 -16.390625 21.554688 -16.484375 21.484375 -16.578125 C 21.421875 -16.679688 21.359375 -16.773438 21.296875 -16.859375 C 21.242188 -16.953125 21.210938 -17.015625 21.203125 -17.046875 C 20.804688 -17.828125 20.367188 -18.488281 19.890625 -19.03125 C 19.421875 -19.570312 18.898438 -20.007812 18.328125 -20.34375 C 17.753906 -20.6875 17.128906 -20.929688 16.453125 -21.078125 C 15.785156 -21.234375 15.0625 -21.3125 14.28125 -21.3125 C 13.28125 -21.3125 12.394531 -21.195312 11.625 -20.96875 C 10.851562 -20.738281 10.175781 -20.410156 9.59375 -19.984375 C 9.019531 -19.566406 8.535156 -19.0625 8.140625 -18.46875 C 7.753906 -17.882812 7.4375 -17.242188 7.1875 -16.546875 C 6.9375 -15.847656 6.753906 -15.101562 6.640625 -14.3125 C 6.535156 -13.519531 6.484375 -12.707031 6.484375 -11.875 C 6.484375 -10.976562 6.546875 -10.09375 6.671875 -9.21875 C 6.796875 -8.34375 7 -7.507812 7.28125 -6.71875 C 7.570312 -5.925781 7.9375 -5.191406 8.375 -4.515625 C 8.820312 -3.835938 9.359375 -3.25 9.984375 -2.75 C 10.617188 -2.25 11.351562 -1.859375 12.1875 -1.578125 C 13.03125 -1.296875 13.984375 -1.15625 15.046875 -1.15625 C 15.941406 -1.15625 16.773438 -1.285156 17.546875 -1.546875 C 18.316406 -1.816406 19.019531 -2.179688 19.65625 -2.640625 C 20.300781 -3.097656 20.867188 -3.617188 21.359375 -4.203125 C 21.859375 -4.796875 22.289062 -5.421875 22.65625 -6.078125 C 22.675781 -6.128906 22.695312 -6.15625 22.71875 -6.15625 C 22.75 -6.164062 22.789062 -6.171875 22.84375 -6.171875 L 23.640625 -6.171875 C 23.671875 -6.171875 23.703125 -6.15625 23.734375 -6.125 C 23.773438 -6.101562 23.796875 -6.050781 23.796875 -5.96875 C 23.796875 -5.9375 23.769531 -5.851562 23.71875 -5.71875 C 23.675781 -5.59375 23.628906 -5.484375 23.578125 -5.390625 L 21.40625 -0.59375 C 21.382812 -0.5625 21.351562 -0.535156 21.3125 -0.515625 C 21.269531 -0.492188 21.234375 -0.484375 21.203125 -0.484375 C 20.953125 -0.484375 20.773438 -0.503906 20.671875 -0.546875 C 20.578125 -0.585938 20.472656 -0.609375 20.359375 -0.609375 C 20.046875 -0.609375 19.628906 -0.550781 19.109375 -0.4375 C 18.597656 -0.332031 18.039062 -0.21875 17.4375 -0.09375 C 16.832031 0.03125 16.222656 0.144531 15.609375 0.25 C 14.992188 0.363281 14.441406 0.421875 13.953125 0.421875 C 12.859375 0.421875 11.789062 0.300781 10.75 0.0625 C 9.707031 -0.175781 8.726562 -0.523438 7.8125 -0.984375 C 6.90625 -1.441406 6.070312 -2.003906 5.3125 -2.671875 C 4.5625 -3.335938 3.910156 -4.085938 3.359375 -4.921875 C 2.816406 -5.765625 2.394531 -6.691406 2.09375 -7.703125 C 1.800781 -8.710938 1.65625 -9.796875 1.65625 -10.953125 Z M 1.65625 -10.953125 "/></g></g><g style="fill:#ff3131;fill-opacity:1;"><g transform="translate(227.773806, 254.57017)"><path style="stroke:none" d="M 8.453125 -2.984375 C 8.453125 -2.628906 8.503906 -2.332031 8.609375 -2.09375 C 8.722656 -1.851562 8.878906 -1.660156 9.078125 -1.515625 C 9.285156 -1.367188 9.539062 -1.265625 9.84375 -1.203125 C 10.144531 -1.140625 10.476562 -1.109375 10.84375 -1.109375 C 10.925781 -1.109375 10.96875 -1.0625 10.96875 -0.96875 L 10.96875 -0.125 C 10.96875 -0.09375 10.960938 -0.0625 10.953125 -0.03125 C 10.941406 -0.0078125 10.90625 0 10.84375 0 L 1.546875 0 C 1.492188 0 1.457031 -0.015625 1.4375 -0.046875 C 1.425781 -0.078125 1.421875 -0.101562 1.421875 -0.125 L 1.421875 -0.96875 C 1.421875 -0.988281 1.425781 -1.015625 1.4375 -1.046875 C 1.457031 -1.085938 1.492188 -1.109375 1.546875 -1.109375 C 1.910156 -1.109375 2.238281 -1.128906 2.53125 -1.171875 C 2.832031 -1.222656 3.085938 -1.328125 3.296875 -1.484375 C 3.515625 -1.640625 3.679688 -1.863281 3.796875 -2.15625 C 3.910156 -2.445312 3.96875 -2.847656 3.96875 -3.359375 L 3.96875 -19.203125 C 3.96875 -19.554688 3.910156 -19.851562 3.796875 -20.09375 C 3.691406 -20.34375 3.535156 -20.539062 3.328125 -20.6875 C 3.117188 -20.832031 2.863281 -20.9375 2.5625 -21 C 2.269531 -21.0625 1.941406 -21.09375 1.578125 -21.09375 C 1.492188 -21.09375 1.453125 -21.132812 1.453125 -21.21875 L 1.453125 -22.0625 C 1.453125 -22.144531 1.492188 -22.1875 1.578125 -22.1875 L 10.875 -22.1875 C 10.925781 -22.1875 10.957031 -22.171875 10.96875 -22.140625 C 10.988281 -22.109375 11 -22.082031 11 -22.0625 L 11 -21.21875 C 11 -21.195312 10.988281 -21.171875 10.96875 -21.140625 C 10.957031 -21.109375 10.925781 -21.09375 10.875 -21.09375 C 10.507812 -21.09375 10.175781 -21.066406 9.875 -21.015625 C 9.570312 -20.972656 9.316406 -20.875 9.109375 -20.71875 C 8.898438 -20.5625 8.738281 -20.332031 8.625 -20.03125 C 8.507812 -19.738281 8.453125 -19.34375 8.453125 -18.84375 Z M 8.453125 -2.984375 "/></g></g><g style="fill:#ff3131;fill-opacity:1;"><g transform="translate(240.189214, 254.57017)"><path style="stroke:none" d="M 1.0625 0 C 1.039062 0 1.015625 -0.0078125 0.984375 -0.03125 C 0.953125 -0.0625 0.9375 -0.09375 0.9375 -0.125 L 0.9375 -0.8125 C 0.9375 -0.894531 0.976562 -0.9375 1.0625 -0.9375 C 1.1875 -0.9375 1.320312 -0.9375 1.46875 -0.9375 C 1.613281 -0.9375 1.753906 -0.941406 1.890625 -0.953125 C 2.035156 -0.960938 2.164062 -0.972656 2.28125 -0.984375 C 2.394531 -0.992188 2.484375 -1.015625 2.546875 -1.046875 C 2.804688 -1.179688 3.019531 -1.351562 3.1875 -1.5625 C 3.363281 -1.769531 3.492188 -2.007812 3.578125 -2.28125 C 3.671875 -2.550781 3.734375 -2.847656 3.765625 -3.171875 C 3.796875 -3.503906 3.8125 -3.851562 3.8125 -4.21875 L 3.8125 -19.9375 C 3.8125 -20.21875 3.695312 -20.445312 3.46875 -20.625 C 3.238281 -20.800781 2.972656 -20.929688 2.671875 -21.015625 C 2.378906 -21.109375 2.078125 -21.171875 1.765625 -21.203125 C 1.460938 -21.234375 1.226562 -21.25 1.0625 -21.25 C 1.007812 -21.25 0.972656 -21.265625 0.953125 -21.296875 C 0.941406 -21.328125 0.9375 -21.351562 0.9375 -21.375 L 0.9375 -22.0625 C 0.9375 -22.082031 0.941406 -22.109375 0.953125 -22.140625 C 0.972656 -22.171875 1.007812 -22.1875 1.0625 -22.1875 L 8.203125 -22.1875 L 21.765625 -7.171875 C 21.816406 -7.117188 21.851562 -7.078125 21.875 -7.046875 C 21.894531 -7.023438 21.921875 -7.015625 21.953125 -7.015625 C 21.992188 -7.015625 22.019531 -7.03125 22.03125 -7.0625 C 22.039062 -7.09375 22.046875 -7.125 22.046875 -7.15625 L 22.046875 -16.515625 C 22.046875 -17.546875 22.007812 -18.375 21.9375 -19 C 21.863281 -19.625 21.726562 -20.101562 21.53125 -20.4375 C 21.332031 -20.769531 21.0625 -20.988281 20.71875 -21.09375 C 20.382812 -21.195312 19.957031 -21.25 19.4375 -21.25 L 18.640625 -21.25 C 18.585938 -21.25 18.550781 -21.265625 18.53125 -21.296875 C 18.519531 -21.328125 18.515625 -21.351562 18.515625 -21.375 L 18.515625 -22.0625 C 18.515625 -22.082031 18.519531 -22.109375 18.53125 -22.140625 C 18.550781 -22.171875 18.585938 -22.1875 18.640625 -22.1875 L 27.296875 -22.1875 C 27.359375 -22.1875 27.394531 -22.171875 27.40625 -22.140625 C 27.414062 -22.109375 27.421875 -22.082031 27.421875 -22.0625 L 27.421875 -21.375 C 27.421875 -21.351562 27.410156 -21.328125 27.390625 -21.296875 C 27.378906 -21.265625 27.347656 -21.25 27.296875 -21.25 C 27.085938 -21.25 26.816406 -21.207031 26.484375 -21.125 C 26.148438 -21.039062 25.828125 -20.921875 25.515625 -20.765625 C 25.203125 -20.609375 24.929688 -20.410156 24.703125 -20.171875 C 24.472656 -19.941406 24.359375 -19.679688 24.359375 -19.390625 L 24.359375 -0.765625 C 24.359375 -0.585938 24.316406 -0.4375 24.234375 -0.3125 C 24.148438 -0.195312 24.039062 -0.101562 23.90625 -0.03125 C 23.78125 0.0390625 23.640625 0.09375 23.484375 0.125 C 23.335938 0.164062 23.203125 0.1875 23.078125 0.1875 C 22.867188 0.1875 22.625 0.140625 22.34375 0.046875 C 22.0625 -0.0351562 21.785156 -0.226562 21.515625 -0.53125 L 6.65625 -17.015625 C 6.582031 -17.085938 6.53125 -17.128906 6.5 -17.140625 C 6.46875 -17.160156 6.425781 -17.171875 6.375 -17.171875 C 6.320312 -17.171875 6.296875 -17.117188 6.296875 -17.015625 L 6.296875 -2.953125 C 6.296875 -2.660156 6.363281 -2.40625 6.5 -2.1875 C 6.644531 -1.976562 6.828125 -1.796875 7.046875 -1.640625 C 7.265625 -1.492188 7.507812 -1.375 7.78125 -1.28125 C 8.050781 -1.195312 8.3125 -1.125 8.5625 -1.0625 C 8.820312 -1.007812 9.050781 -0.972656 9.25 -0.953125 C 9.457031 -0.941406 9.617188 -0.9375 9.734375 -0.9375 C 9.785156 -0.9375 9.820312 -0.914062 9.84375 -0.875 C 9.851562 -0.851562 9.859375 -0.832031 9.859375 -0.8125 L 9.859375 -0.125 C 9.859375 -0.101562 9.847656 -0.078125 9.828125 -0.046875 C 9.816406 -0.015625 9.785156 0 9.734375 0 Z M 1.0625 0 "/></g></g><g style="fill:#ff3131;fill-opacity:1;"><g transform="translate(268.15142, 254.57017)"><path style="stroke:none" d="M 1.8125 -11.28125 C 1.8125 -12.34375 1.953125 -13.359375 2.234375 -14.328125 C 2.515625 -15.304688 2.910156 -16.222656 3.421875 -17.078125 C 3.941406 -17.941406 4.5625 -18.722656 5.28125 -19.421875 C 6 -20.117188 6.785156 -20.71875 7.640625 -21.21875 C 8.503906 -21.71875 9.425781 -22.101562 10.40625 -22.375 C 11.394531 -22.65625 12.40625 -22.796875 13.4375 -22.796875 C 14 -22.796875 14.566406 -22.757812 15.140625 -22.6875 C 15.710938 -22.625 16.273438 -22.535156 16.828125 -22.421875 C 17.378906 -22.316406 17.898438 -22.203125 18.390625 -22.078125 C 18.890625 -21.953125 19.320312 -21.835938 19.6875 -21.734375 C 20.0625 -21.628906 20.367188 -21.539062 20.609375 -21.46875 C 20.847656 -21.40625 20.984375 -21.375 21.015625 -21.375 L 21.203125 -21.375 C 21.285156 -21.375 21.347656 -21.378906 21.390625 -21.390625 C 21.441406 -21.410156 21.484375 -21.429688 21.515625 -21.453125 C 21.554688 -21.472656 21.597656 -21.488281 21.640625 -21.5 C 21.679688 -21.519531 21.742188 -21.53125 21.828125 -21.53125 L 22.453125 -21.53125 C 22.472656 -21.53125 22.507812 -21.519531 22.5625 -21.5 C 22.613281 -21.488281 22.640625 -21.441406 22.640625 -21.359375 L 22.640625 -16.125 C 22.640625 -16 22.585938 -15.914062 22.484375 -15.875 C 22.378906 -15.832031 22.289062 -15.8125 22.21875 -15.8125 C 22.125 -15.820312 22.039062 -15.875 21.96875 -15.96875 C 21.894531 -16.070312 21.828125 -16.179688 21.765625 -16.296875 C 21.703125 -16.410156 21.648438 -16.519531 21.609375 -16.625 C 21.566406 -16.726562 21.539062 -16.804688 21.53125 -16.859375 C 21.269531 -17.671875 20.898438 -18.359375 20.421875 -18.921875 C 19.941406 -19.484375 19.378906 -19.941406 18.734375 -20.296875 C 18.085938 -20.660156 17.378906 -20.921875 16.609375 -21.078125 C 15.835938 -21.234375 15.03125 -21.3125 14.1875 -21.3125 C 12.726562 -21.3125 11.507812 -21.039062 10.53125 -20.5 C 9.550781 -19.96875 8.765625 -19.25 8.171875 -18.34375 C 7.578125 -17.445312 7.15625 -16.40625 6.90625 -15.21875 C 6.664062 -14.039062 6.546875 -12.800781 6.546875 -11.5 C 6.546875 -10.613281 6.632812 -9.738281 6.8125 -8.875 C 6.988281 -8.019531 7.242188 -7.203125 7.578125 -6.421875 C 7.910156 -5.648438 8.3125 -4.941406 8.78125 -4.296875 C 9.25 -3.660156 9.773438 -3.109375 10.359375 -2.640625 C 10.941406 -2.171875 11.570312 -1.804688 12.25 -1.546875 C 12.925781 -1.285156 13.644531 -1.15625 14.40625 -1.15625 C 15.25 -1.15625 15.992188 -1.242188 16.640625 -1.421875 C 17.285156 -1.609375 17.804688 -1.96875 18.203125 -2.5 L 18.203125 -5.984375 C 18.203125 -6.429688 18.144531 -6.832031 18.03125 -7.1875 C 17.925781 -7.539062 17.726562 -7.835938 17.4375 -8.078125 C 17.144531 -8.316406 16.742188 -8.5 16.234375 -8.625 C 15.734375 -8.75 15.09375 -8.8125 14.3125 -8.8125 C 14.25 -8.8125 14.203125 -8.867188 14.171875 -8.984375 C 14.148438 -9.109375 14.140625 -9.210938 14.140625 -9.296875 C 14.140625 -9.347656 14.148438 -9.4375 14.171875 -9.5625 C 14.203125 -9.695312 14.25 -9.765625 14.3125 -9.765625 L 25.265625 -9.765625 C 25.347656 -9.765625 25.394531 -9.703125 25.40625 -9.578125 C 25.425781 -9.453125 25.4375 -9.359375 25.4375 -9.296875 C 25.4375 -9.242188 25.425781 -9.160156 25.40625 -9.046875 C 25.382812 -8.929688 25.335938 -8.851562 25.265625 -8.8125 C 24.984375 -8.695312 24.691406 -8.597656 24.390625 -8.515625 C 24.085938 -8.429688 23.8125 -8.320312 23.5625 -8.1875 C 23.3125 -8.050781 23.101562 -7.863281 22.9375 -7.625 C 22.78125 -7.382812 22.703125 -7.0625 22.703125 -6.65625 L 22.703125 -2.0625 C 22.703125 -1.976562 22.664062 -1.910156 22.59375 -1.859375 C 22.519531 -1.804688 22.410156 -1.75 22.265625 -1.6875 C 21.679688 -1.40625 21.015625 -1.132812 20.265625 -0.875 C 19.523438 -0.625 18.757812 -0.398438 17.96875 -0.203125 C 17.1875 -0.015625 16.40625 0.132812 15.625 0.25 C 14.851562 0.363281 14.144531 0.421875 13.5 0.421875 C 11.875 0.421875 10.351562 0.148438 8.9375 -0.390625 C 7.519531 -0.929688 6.28125 -1.707031 5.21875 -2.71875 C 4.164062 -3.726562 3.332031 -4.957031 2.71875 -6.40625 C 2.113281 -7.851562 1.8125 -9.476562 1.8125 -11.28125 Z M 1.8125 -11.28125 "/></g></g><g style="fill:#ffffff;fill-opacity:1;"><g transform="translate(122.958805, 219.706378)"><path style="stroke:none" d="M 2.40625 0 L 2.40625 -0.671875 L 3.03125 -0.671875 C 3.476562 -0.703125 4 -0.796875 4.59375 -0.953125 C 5.195312 -1.117188 5.5 -1.410156 5.5 -1.828125 L 5.5 -32.1875 C 5.5 -32.601562 5.195312 -32.890625 4.59375 -33.046875 C 4 -33.210938 3.476562 -33.3125 3.03125 -33.34375 L 2.40625 -33.34375 L 2.40625 -34.015625 L 10.3125 -34.015625 L 10.3125 -33.34375 L 9.6875 -33.34375 C 9.269531 -33.3125 8.753906 -33.210938 8.140625 -33.046875 C 7.535156 -32.890625 7.234375 -32.601562 7.234375 -32.1875 L 7.234375 -17.6875 L 22.5 -32.28125 C 22.695312 -32.570312 22.671875 -32.78125 22.421875 -32.90625 C 22.179688 -33.039062 21.851562 -33.140625 21.4375 -33.203125 C 21.019531 -33.265625 20.632812 -33.296875 20.28125 -33.296875 L 19.609375 -33.296875 L 19.609375 -33.96875 L 27.328125 -33.96875 L 27.328125 -33.296875 L 26.640625 -33.296875 C 26.328125 -33.265625 25.820312 -33.175781 25.125 -33.03125 C 24.4375 -32.882812 23.851562 -32.585938 23.375 -32.140625 L 9.0625 -18.5 L 26.546875 -1.390625 C 27.097656 -1.078125 27.617188 -0.878906 28.109375 -0.796875 C 28.609375 -0.710938 28.972656 -0.671875 29.203125 -0.671875 L 29.390625 -0.671875 L 29.390625 0 L 21.484375 0 L 21.484375 -0.671875 L 22.265625 -0.671875 C 22.617188 -0.703125 22.953125 -0.75 23.265625 -0.8125 C 23.585938 -0.882812 23.8125 -1 23.9375 -1.15625 C 24.070312 -1.3125 23.960938 -1.535156 23.609375 -1.828125 L 7.8125 -17.296875 L 7.234375 -16.765625 L 7.234375 -1.828125 C 7.234375 -1.410156 7.535156 -1.117188 8.140625 -0.953125 C 8.753906 -0.796875 9.269531 -0.703125 9.6875 -0.671875 L 10.3125 -0.671875 L 10.3125 0 Z M 2.40625 0 "/></g></g><g style="fill:#ffffff;fill-opacity:1;"><g transform="translate(154.521608, 219.706378)"><path style="stroke:none" d="M 2.40625 -0.71875 C 2.40625 -1.59375 2.523438 -2.523438 2.765625 -3.515625 C 3.003906 -4.515625 3.328125 -5.503906 3.734375 -6.484375 C 4.140625 -7.460938 4.550781 -8.320312 4.96875 -9.0625 C 5.632812 -10.21875 6.601562 -11.289062 7.875 -12.28125 C 9.144531 -13.28125 10.507812 -14.269531 11.96875 -15.25 C 13.4375 -16.226562 14.835938 -17.25 16.171875 -18.3125 C 17.503906 -19.375 18.59375 -20.535156 19.4375 -21.796875 C 20.289062 -23.066406 20.71875 -24.488281 20.71875 -26.0625 C 20.71875 -27.351562 20.335938 -28.5625 19.578125 -29.6875 C 18.828125 -30.8125 17.828125 -31.722656 16.578125 -32.421875 C 15.328125 -33.128906 13.929688 -33.484375 12.390625 -33.484375 C 11.097656 -33.484375 9.894531 -33.203125 8.78125 -32.640625 C 7.675781 -32.078125 6.695312 -31.332031 5.84375 -30.40625 C 5 -29.476562 4.320312 -28.453125 3.8125 -27.328125 L 3.1875 -27.65625 C 3.1875 -27.65625 3.1875 -27.660156 3.1875 -27.671875 C 3.1875 -27.691406 3.203125 -27.703125 3.234375 -27.703125 L 3.1875 -27.703125 L 3.953125 -30.890625 C 5.523438 -31.921875 6.992188 -32.734375 8.359375 -33.328125 C 9.722656 -33.921875 11.066406 -34.21875 12.390625 -34.21875 C 14.242188 -34.21875 15.925781 -33.867188 17.4375 -33.171875 C 18.945312 -32.484375 20.160156 -31.53125 21.078125 -30.3125 C 21.992188 -29.09375 22.453125 -27.675781 22.453125 -26.0625 C 22.453125 -24.238281 22.128906 -22.664062 21.484375 -21.34375 C 20.847656 -20.03125 19.988281 -18.890625 18.90625 -17.921875 C 17.832031 -16.960938 16.644531 -16.070312 15.34375 -15.25 C 14.039062 -14.425781 12.726562 -13.601562 11.40625 -12.78125 C 10.09375 -11.96875 8.859375 -11.0625 7.703125 -10.0625 C 6.546875 -9.070312 5.582031 -7.910156 4.8125 -6.578125 C 4.039062 -5.242188 3.5625 -3.644531 3.375 -1.78125 L 19.65625 -1.78125 C 20.144531 -1.78125 20.644531 -2.015625 21.15625 -2.484375 C 21.664062 -2.953125 22.128906 -3.519531 22.546875 -4.1875 L 23.375 -4.1875 L 20.8125 0 L 2.40625 0 Z M 2.40625 -0.71875 "/></g><g transform="translate(180.301919, 219.706378)"><path style="stroke:none" d="M 2.40625 -0.71875 L 2.984375 -0.71875 C 3.429688 -0.75 3.960938 -0.84375 4.578125 -1 C 5.191406 -1.164062 5.5 -1.457031 5.5 -1.875 L 5.5 -32.1875 C 5.5 -32.632812 5.195312 -32.929688 4.59375 -33.078125 C 4 -33.222656 3.476562 -33.3125 3.03125 -33.34375 L 2.40625 -33.34375 L 2.40625 -34.0625 L 12.921875 -34.0625 C 15.390625 -34.0625 17.472656 -33.257812 19.171875 -31.65625 C 20.015625 -30.882812 20.660156 -29.976562 21.109375 -28.9375 C 21.554688 -27.894531 21.78125 -26.796875 21.78125 -25.640625 C 21.78125 -24.484375 21.554688 -23.375 21.109375 -22.3125 C 20.660156 -21.25 20.015625 -20.347656 19.171875 -19.609375 C 18.210938 -18.742188 17.1875 -18.132812 16.09375 -17.78125 C 17.925781 -17.425781 19.5 -16.640625 20.8125 -15.421875 C 22.675781 -13.648438 23.609375 -11.5 23.609375 -8.96875 C 23.609375 -7.707031 23.367188 -6.53125 22.890625 -5.4375 C 22.410156 -4.351562 21.71875 -3.390625 20.8125 -2.546875 C 19.019531 -0.847656 16.804688 0 14.171875 0 L 2.40625 0 Z M 13.296875 -17.921875 C 14.546875 -18.015625 15.691406 -18.421875 16.734375 -19.140625 C 17.785156 -19.867188 18.625 -20.800781 19.25 -21.9375 C 19.875 -23.082031 20.1875 -24.316406 20.1875 -25.640625 C 20.1875 -27.015625 19.847656 -28.28125 19.171875 -29.4375 C 18.503906 -30.59375 17.613281 -31.53125 16.5 -32.25 C 15.394531 -32.976562 14.203125 -33.34375 12.921875 -33.34375 L 9.6875 -33.34375 C 9.269531 -33.3125 8.753906 -33.222656 8.140625 -33.078125 C 7.535156 -32.929688 7.234375 -32.632812 7.234375 -32.1875 L 7.234375 -17.921875 Z M 14.171875 -0.71875 C 16.316406 -0.71875 18.144531 -1.554688 19.65625 -3.234375 C 20.394531 -4.035156 20.960938 -4.929688 21.359375 -5.921875 C 21.765625 -6.921875 21.96875 -7.9375 21.96875 -8.96875 C 21.96875 -9.988281 21.765625 -11.003906 21.359375 -12.015625 C 20.960938 -13.035156 20.394531 -13.929688 19.65625 -14.703125 C 18.144531 -16.367188 16.316406 -17.203125 14.171875 -17.203125 L 14.125 -17.203125 L 14.125 -17.25 L 13.296875 -17.25 C 13.265625 -17.25 13.207031 -17.238281 13.125 -17.21875 C 13.050781 -17.207031 12.984375 -17.203125 12.921875 -17.203125 L 12.859375 -17.203125 L 12.859375 -17.25 L 7.234375 -17.25 L 7.234375 -1.875 C 7.234375 -1.457031 7.535156 -1.164062 8.140625 -1 C 8.753906 -0.84375 9.269531 -0.75 9.6875 -0.71875 Z M 14.171875 -0.71875 "/></g></g></g></svg>